<svg width="30" height="31" viewBox="0 0 30 31" fill="none" xmlns="http://www.w3.org/2000/svg">
<g id="Component 3">
<path id="Vector" fill-rule="evenodd" clip-rule="evenodd" d="M15.0494 5.01758H14.9506C14.2858 5.01754 13.7129 5.01751 13.2542 5.07919C12.7625 5.14529 12.2913 5.29435 11.909 5.67659C11.5268 6.05884 11.3777 6.5301 11.3116 7.02174C11.2499 7.48048 11.25 8.05335 11.25 8.71821L11.25 11.1456C11.0154 11.0627 10.763 11.0176 10.5 11.0176H7.5C6.25736 11.0176 5.25 12.0249 5.25 13.2676V25.0176H5C4.58579 25.0176 4.25 25.3534 4.25 25.7676C4.25 26.1818 4.58579 26.5176 5 26.5176H25C25.4142 26.5176 25.75 26.1818 25.75 25.7676C25.75 25.3534 25.4142 25.0176 25 25.0176H24.75V18.2676C24.75 17.0249 23.7426 16.0176 22.5 16.0176H19.5C19.237 16.0176 18.9846 16.0627 18.75 16.1456L18.75 8.71821C18.75 8.05335 18.7501 7.48049 18.6884 7.02174C18.6223 6.5301 18.4732 6.05884 18.091 5.67659C17.7087 5.29435 17.2375 5.14529 16.7458 5.07919C16.2871 5.01751 15.7142 5.01754 15.0494 5.01758ZM23.25 25.0176V18.2676C23.25 17.8534 22.9142 17.5176 22.5 17.5176H19.5C19.0858 17.5176 18.75 17.8534 18.75 18.2676V25.0176H23.25ZM17.25 25.0176V8.76758C17.25 8.03927 17.2484 7.56849 17.2018 7.22161C17.158 6.89631 17.0874 6.79435 17.0303 6.73725C16.9732 6.68016 16.8713 6.60955 16.546 6.56581C16.1991 6.51918 15.7283 6.51758 15 6.51758C14.2717 6.51758 13.8009 6.51918 13.454 6.56581C13.1287 6.60955 13.0268 6.68016 12.9697 6.73725C12.9126 6.79435 12.842 6.89631 12.7982 7.22161C12.7516 7.56849 12.75 8.03927 12.75 8.76758V25.0176H17.25ZM11.25 25.0176V13.2676C11.25 12.8534 10.9142 12.5176 10.5 12.5176H7.5C7.08579 12.5176 6.75 12.8534 6.75 13.2676V25.0176H11.25Z" fill="black"/>
</g>
</svg>
