<svg width="342" height="198" viewBox="0 0 342 198" fill="none" xmlns="http://www.w3.org/2000/svg">
<g filter="url(#filter0_dd_5650_12404)">
<g clip-path="url(#clip0_5650_12404)">
<rect x="3" y="2" width="336" height="192" rx="10" fill="white"/>
<line x1="171.5" y1="27.5" x2="171.5" y2="138.5" stroke="black" stroke-linecap="round"/>
<path d="M172 27.5C172 27.2239 171.776 27 171.5 27C171.224 27 171 27.2239 171 27.5L172 27.5ZM171 27.5L171 66.5L172 66.5L172 27.5L171 27.5Z" fill="#3A82F4"/>
<path d="M171 138.5C171 138.776 171.224 139 171.5 139C171.776 139 172 138.776 172 138.5L171 138.5ZM171 99.5L171 138.5L172 138.5L172 99.5L171 99.5Z" fill="#3A82F4"/>
<path d="M3 160.792V193L339 193V160.792C333.812 179.546 317.259 170.984 301.941 160.792C236.396 117.177 193.482 173.838 157.906 160.792C66.7412 112.275 21.2824 208.085 3 160.792Z" fill="#B8F236"/>
<path d="M3 163.615V194H339V163.615C333.812 180.838 317.259 172.976 301.941 163.615C236.396 123.561 193.482 175.597 157.906 163.615C66.7412 119.059 21.2824 207.048 3 163.615Z" fill="url(#paint0_linear_5650_12404)"/>
</g>
</g>
<defs>
<filter id="filter0_dd_5650_12404" x="0" y="0" width="342" height="198" filterUnits="userSpaceOnUse" color-interpolation-filters="sRGB">
<feFlood flood-opacity="0" result="BackgroundImageFix"/>
<feColorMatrix in="SourceAlpha" type="matrix" values="0 0 0 0 0 0 0 0 0 0 0 0 0 0 0 0 0 0 127 0" result="hardAlpha"/>
<feOffset dy="1"/>
<feGaussianBlur stdDeviation="1"/>
<feComposite in2="hardAlpha" operator="out"/>
<feColorMatrix type="matrix" values="0 0 0 0 0 0 0 0 0 0 0 0 0 0 0 0 0 0 0.06 0"/>
<feBlend mode="normal" in2="BackgroundImageFix" result="effect1_dropShadow_5650_12404"/>
<feColorMatrix in="SourceAlpha" type="matrix" values="0 0 0 0 0 0 0 0 0 0 0 0 0 0 0 0 0 0 127 0" result="hardAlpha"/>
<feOffset dy="1"/>
<feGaussianBlur stdDeviation="1.5"/>
<feComposite in2="hardAlpha" operator="out"/>
<feColorMatrix type="matrix" values="0 0 0 0 0 0 0 0 0 0 0 0 0 0 0 0 0 0 0.1 0"/>
<feBlend mode="normal" in2="effect1_dropShadow_5650_12404" result="effect2_dropShadow_5650_12404"/>
<feBlend mode="normal" in="SourceGraphic" in2="effect2_dropShadow_5650_12404" result="shape"/>
</filter>
<linearGradient id="paint0_linear_5650_12404" x1="3" y1="182.373" x2="332.354" y2="118.731" gradientUnits="userSpaceOnUse">
<stop stop-color="#3B82F6"/>
<stop offset="0.444029" stop-color="#005DA0" stop-opacity="0.93"/>
<stop offset="1" stop-color="#BFF733"/>
</linearGradient>
<clipPath id="clip0_5650_12404">
<rect x="3" y="2" width="336" height="192" rx="10" fill="white"/>
</clipPath>
</defs>
</svg>
