<svg width="28" height="28" viewBox="0 0 28 28" fill="none" xmlns="http://www.w3.org/2000/svg">
<rect x="0.613281" y="0.152344" width="27.2285" height="27.2285" rx="7.26092" fill="#FFDFDF"/>
<g clip-path="url(#clip0_4573_3309)">
<path fill-rule="evenodd" clip-rule="evenodd" d="M14.6545 20.1735L18.7177 16.1097L19.7102 18.6351L11.3102 21.9352L8.03733 13.6047L14.6545 20.1735ZM13.7859 5.59814H7.41992V12.0329L14.6525 19.2124L21.0342 12.8307L13.7859 5.59814ZM16.5258 12.0486C16.2433 11.7661 15.937 11.6286 15.5878 11.6286C15.1943 11.6286 14.7525 11.7926 14.11 12.1759C13.6457 12.455 13.3489 12.5734 13.1188 12.5734C12.8731 12.5734 12.3816 12.2957 12.4647 11.7443C12.5001 11.5094 12.6349 11.2698 12.854 11.05C13.2979 10.6068 13.9051 10.4727 14.4033 10.9778L14.9098 10.4714C14.5858 10.1473 14.1637 9.93224 13.7111 9.93224C13.3258 9.93224 12.9453 10.0868 12.579 10.3931L12.1529 9.96627L11.6778 10.4421L12.1223 10.8859C11.735 11.4482 11.5491 12.2616 12.174 12.8858C12.8622 13.574 13.6634 13.2541 14.4973 12.7279C14.9057 12.4699 15.2345 12.3447 15.5013 12.3447C15.9023 12.3447 16.3046 12.6837 16.2351 13.201C16.1997 13.4638 16.0582 13.7204 15.8124 13.9648C15.5054 14.2718 15.1971 14.427 14.8955 14.427C14.611 14.427 14.387 14.2963 14.1814 14.1125L13.6784 14.6155C13.9936 14.9273 14.4149 15.1281 14.8594 15.1281C15.2297 15.1281 15.5994 14.9913 15.9567 14.7217L16.3243 15.0879L16.7988 14.6135L16.4448 14.2588C16.9506 13.6489 17.2324 12.7551 16.5258 12.0486ZM9.93787 6.95957C10.5764 6.95957 11.0944 7.47759 11.0944 8.1161C11.0944 8.7546 10.5764 9.27263 9.93787 9.27263C9.29937 9.27263 8.78135 8.7546 8.78135 8.1161C8.78135 7.47759 9.29937 6.95957 9.93787 6.95957Z" fill="#F93131"/>
</g>
<defs>
<clipPath id="clip0_4573_3309">
<rect width="16.3371" height="16.3371" fill="white" transform="translate(6.05859 5.59814)"/>
</clipPath>
</defs>
</svg>
