<svg width="34" height="35" viewBox="0 0 34 35" fill="none" xmlns="http://www.w3.org/2000/svg">
<rect y="0.333496" width="34" height="34" rx="8" fill="#F4F5F9"/>
<g clip-path="url(#clip0_4573_3349)">
<path d="M22.25 9.8335V24.8335H11.75V9.8335H22.25ZM22.25 8.3335H11.75C10.922 8.3335 10.25 9.0055 10.25 9.8335V24.8335C10.25 25.6615 10.922 26.3335 11.75 26.3335H22.25C23.078 26.3335 23.75 25.6615 23.75 24.8335V9.8335C23.75 9.0055 23.078 8.3335 22.25 8.3335ZM12.5 22.5835V12.0835H21.5V22.5835H12.5ZM16.625 23.7085C16.625 23.5015 16.793 23.3335 17 23.3335C17.207 23.3335 17.375 23.5015 17.375 23.7085C17.375 23.9155 17.207 24.0835 17 24.0835C16.793 24.0835 16.625 23.9155 16.625 23.7085Z" fill="#6E39CB"/>
</g>
<defs>
<clipPath id="clip0_4573_3349">
<rect width="18" height="18" fill="white" transform="translate(8 8.3335)"/>
</clipPath>
</defs>
</svg>
