<svg width="20" height="21" viewBox="0 0 20 21" fill="none" xmlns="http://www.w3.org/2000/svg">
<g id="Vector">
<path d="M7 1.76709H2C1.44772 1.76709 1 2.21481 1 2.76709V9.76709C1 10.3194 1.44772 10.7671 2 10.7671H7C7.55228 10.7671 8 10.3194 8 9.76709V2.76709C8 2.21481 7.55228 1.76709 7 1.76709Z" stroke="white" stroke-width="2" stroke-linecap="round" stroke-linejoin="round"/>
<path d="M18 1.76709H13C12.4477 1.76709 12 2.21481 12 2.76709V5.76709C12 6.31937 12.4477 6.76709 13 6.76709H18C18.5523 6.76709 19 6.31937 19 5.76709V2.76709C19 2.21481 18.5523 1.76709 18 1.76709Z" stroke="white" stroke-width="2" stroke-linecap="round" stroke-linejoin="round"/>
<path d="M18 10.7671H13C12.4477 10.7671 12 11.2148 12 11.7671V18.7671C12 19.3194 12.4477 19.7671 13 19.7671H18C18.5523 19.7671 19 19.3194 19 18.7671V11.7671C19 11.2148 18.5523 10.7671 18 10.7671Z" stroke="white" stroke-width="2" stroke-linecap="round" stroke-linejoin="round"/>
<path d="M7 14.7671H2C1.44772 14.7671 1 15.2148 1 15.7671V18.7671C1 19.3194 1.44772 19.7671 2 19.7671H7C7.55228 19.7671 8 19.3194 8 18.7671V15.7671C8 15.2148 7.55228 14.7671 7 14.7671Z" stroke="white" stroke-width="2" stroke-linecap="round" stroke-linejoin="round"/>
</g>
</svg>
