<svg width="17" height="17" viewBox="0 0 17 17" fill="none" xmlns="http://www.w3.org/2000/svg">
<g id="Icon/users" clip-path="url(#clip0_4582_3523)">
<path id="Vector" d="M7.34325 11.6509C9.29417 11.2002 10.433 10.8061 9.55284 9.14449C6.87628 4.08885 8.84353 1.38574 11.6705 1.38574C14.5533 1.38574 16.4723 4.193 13.7875 9.14449C12.8808 10.8156 14.085 11.2098 15.9944 11.6509C17.6846 12.0416 17.7963 12.8673 17.7963 14.2982V15H5.54344C5.54344 13.1314 5.39369 12.1015 7.34325 11.6509ZM-1.26367 15H4.05201C4.02818 9.4338 6.39093 11.3834 6.39093 7.4257C6.39093 5.71643 5.27524 4.7893 3.83962 4.7893C1.71921 4.7893 0.244105 6.81714 2.25152 10.6087C2.91113 11.8544 1.54971 12.1505 0.0861793 12.4881C-1.18131 12.7809 -1.26367 13.4003 -1.26367 14.4738V15Z" fill="#6D41CA"/>
</g>
<defs>
<clipPath id="clip0_4582_3523">
<rect width="16.3371" height="16.3371" fill="white" transform="translate(0.0976562 0.0244141)"/>
</clipPath>
</defs>
</svg>
