<svg width="30" height="31" viewBox="0 0 30 31" fill="none" xmlns="http://www.w3.org/2000/svg">
<g id="Icons Pack outline ">
<path id="Vector" d="M22.5 24.1665C22.8094 24.1921 23.1223 24.2051 23.4383 24.2051C24.7487 24.2051 26.0068 23.981 27.1763 23.5691C27.1842 23.4697 27.1883 23.3691 27.1883 23.2676C27.1883 21.1965 25.5093 19.5176 23.4383 19.5176C22.6538 19.5176 21.9255 19.7585 21.3235 20.1704M22.5 24.1665C22.5 24.1794 22.5001 24.1922 22.5001 24.2051C22.5001 24.4863 22.4846 24.7639 22.4544 25.0371C20.2585 26.2971 17.7134 27.0176 15.0001 27.0176C12.2867 27.0176 9.74165 26.2971 7.54569 25.0371C7.51554 24.7639 7.50006 24.4863 7.50006 24.2051C7.50006 24.1923 7.50009 24.1794 7.50016 24.1666M22.5 24.1665C22.4926 22.6958 22.0619 21.3252 21.3235 20.1704M21.3235 20.1704C19.9911 18.0866 17.6569 16.7051 15.0001 16.7051C12.3436 16.7051 10.0096 18.0862 8.67717 20.1696M8.67717 20.1696C8.07535 19.7582 7.34751 19.5176 6.56348 19.5176C4.49241 19.5176 2.81348 21.1965 2.81348 23.2676C2.81348 23.3691 2.81751 23.4697 2.82543 23.5691C3.99497 23.981 5.25306 24.2051 6.56348 24.2051C6.8789 24.2051 7.1913 24.1921 7.50016 24.1666M8.67717 20.1696C7.93844 21.3247 7.50754 22.6956 7.50016 24.1666M18.7501 9.20508C18.7501 11.2761 17.0711 12.9551 15.0001 12.9551C12.929 12.9551 11.2501 11.2761 11.2501 9.20508C11.2501 7.13401 12.929 5.45508 15.0001 5.45508C17.0711 5.45508 18.7501 7.13401 18.7501 9.20508ZM26.2501 12.9551C26.2501 14.5084 24.9909 15.7676 23.4376 15.7676C21.8843 15.7676 20.6251 14.5084 20.6251 12.9551C20.6251 11.4018 21.8843 10.1426 23.4376 10.1426C24.9909 10.1426 26.2501 11.4018 26.2501 12.9551ZM9.37506 12.9551C9.37506 14.5084 8.11586 15.7676 6.56256 15.7676C5.00926 15.7676 3.75006 14.5084 3.75006 12.9551C3.75006 11.4018 5.00926 10.1426 6.56256 10.1426C8.11586 10.1426 9.37506 11.4018 9.37506 12.9551Z" stroke="#212121" stroke-width="1.5" stroke-linecap="round" stroke-linejoin="round"/>
</g>
</svg>
