<svg width="30" height="31" viewBox="0 0 30 31" fill="none" xmlns="http://www.w3.org/2000/svg">
<g id="Icons Pack outline ">
<path id="Vector" d="M18.75 12.0176H23.4375M18.75 15.7676H23.4375M18.75 19.5176H23.4375M5.625 25.1426H24.375C25.9283 25.1426 27.1875 23.8834 27.1875 22.3301V9.20508C27.1875 7.65178 25.9283 6.39258 24.375 6.39258H5.625C4.0717 6.39258 2.8125 7.65178 2.8125 9.20508V22.3301C2.8125 23.8834 4.0717 25.1426 5.625 25.1426ZM13.125 12.4863C13.125 13.7807 12.0757 14.8301 10.7812 14.8301C9.48683 14.8301 8.4375 13.7807 8.4375 12.4863C8.4375 11.1919 9.48683 10.1426 10.7812 10.1426C12.0757 10.1426 13.125 11.1919 13.125 12.4863ZM14.7423 20.4068C13.5612 21.036 12.2128 21.3926 10.7811 21.3926C9.34935 21.3926 8.00093 21.036 6.81976 20.4068C7.41233 18.7935 8.96228 17.6426 10.7811 17.6426C12.5998 17.6426 14.1498 18.7935 14.7423 20.4068Z" stroke="black" stroke-width="1.5" stroke-linecap="round" stroke-linejoin="round"/>
</g>
</svg>
