<svg width="34" height="35" viewBox="0 0 34 35" fill="none" xmlns="http://www.w3.org/2000/svg">
<rect y="0.333496" width="34" height="34" rx="8" fill="#F4F5F9"/>
<path d="M24.5 10.7335C24.5 10.2362 24.0972 9.8335 23.6 9.8335H10.4C9.90275 9.8335 9.5 10.2362 9.5 10.7335V19.5835H24.5V10.7335ZM23 18.0835H11V11.3335H23V18.0835ZM24.5 20.3335H9.5C9.35225 20.6125 8 23.77 8 24.082C8 24.4735 8.3135 24.8335 8.7515 24.8335H25.2485C25.6865 24.8335 26 24.4735 26 24.082C26 23.77 24.6478 20.6125 24.5 20.3335ZM15.3282 24.0835L15.6785 23.3335H18.3207L18.671 24.0835H15.3282Z" fill="#6E39CB"/>
</svg>
