<svg width="198" height="342" viewBox="0 0 198 342" fill="none" xmlns="http://www.w3.org/2000/svg">
<g clip-path="url(#clip0_1_2)">
<g filter="url(#filter0_di_1_2)">
<mask id="mask0_1_2" style="mask-type:luminance" maskUnits="userSpaceOnUse" x="3" y="2" width="192" height="336">
<path d="M195 328L195 12C195 6.47715 190.523 2 185 2L13 2C7.47716 2 3 6.47715 3 12L3 328C3 333.523 7.47716 338 13 338H185C190.523 338 195 333.523 195 328Z" fill="white"/>
</mask>
<g mask="url(#mask0_1_2)">
<path d="M195 328L195 12C195 6.47715 190.523 2 185 2L13 2C7.47716 2 3 6.47715 3 12L3 328C3 333.523 7.47716 338 13 338H185C190.523 338 195 333.523 195 328Z" fill="white"/>
<path d="M158.5 178.5H39.5" stroke="black" stroke-linecap="round"/>
<path d="M158.464 179C158.74 179 158.964 178.776 158.964 178.5C158.964 178.224 158.74 178 158.464 178V179ZM158.464 178.5V178H116.679V178.5V179H158.464V178.5Z" fill="#6D41CA"/>
<path d="M39.5356 178C39.2594 178 39.0356 178.224 39.0356 178.5C39.0356 178.776 39.2594 179 39.5356 179V178ZM81.3213 178.5V178H39.5356V178.5V179H81.3213V178.5Z" fill="#6D41CA"/>
<path d="M434 308.599V350.03H-70V308.599C-62.2177 332.724 -37.3882 321.71 -14.4118 308.599C83.9054 252.497 148.276 325.381 201.641 308.599C338.388 246.191 406.576 369.434 434 308.599Z" fill="#5733A2"/>
<path d="M434 317.287V352H-70V317.287C-62.2177 336.964 -37.3882 327.981 -14.4117 317.287C83.9054 271.529 148.276 330.975 201.641 317.287C338.388 266.386 406.576 366.906 434 317.287Z" fill="url(#paint0_linear_1_2)"/>
<path d="M-154 54.4006V4.37852L350 4.37848V54.4006C342.218 25.2739 317.388 38.5709 294.412 54.4006H-24.5C-24.5 54.4006 -126.576 -19.0495 -154 54.4006Z" fill="#5733A2"/>
<path d="M-154 43.9109V1.99982H350V43.9109C342.218 20.1543 222.976 30.9996 200 43.9108L-14.5 43.9109C-105.242 43.9109 -126.576 -15.9971 -154 43.9109Z" fill="url(#paint1_linear_1_2)"/>
<g filter="url(#filter1_di_1_2)">
<path d="M133 100.5C133 81.9985 118.002 67 99.5 67C80.9985 67 66 81.9985 66 100.5C66 119.002 80.9985 134 99.5 134C118.002 134 133 119.002 133 100.5Z" fill="#ADADAD"/>
<path d="M134.661 100.5C134.661 81.081 118.919 65.3388 99.5 65.3388C80.081 65.3388 64.3388 81.081 64.3388 100.5C64.3388 119.919 80.081 135.661 99.5 135.661C118.919 135.661 134.661 119.919 134.661 100.5Z" stroke="white" stroke-width="3.32231"/>
</g>
</g>
</g>
<rect x="27" y="63" width="140" height="140" fill="white"/>
</g>
<defs>
<filter id="filter0_di_1_2" x="0" y="0" width="198" height="342" filterUnits="userSpaceOnUse" color-interpolation-filters="sRGB">
<feFlood flood-opacity="0" result="BackgroundImageFix"/>
<feColorMatrix in="SourceAlpha" type="matrix" values="0 0 0 0 0 0 0 0 0 0 0 0 0 0 0 0 0 0 127 0" result="hardAlpha"/>
<feOffset dy="1"/>
<feGaussianBlur stdDeviation="1.5"/>
<feComposite in2="hardAlpha" operator="out"/>
<feColorMatrix type="matrix" values="0 0 0 0 0 0 0 0 0 0 0 0 0 0 0 0 0 0 0.1 0"/>
<feBlend mode="normal" in2="BackgroundImageFix" result="effect1_dropShadow_1_2"/>
<feBlend mode="normal" in="SourceGraphic" in2="effect1_dropShadow_1_2" result="shape"/>
<feColorMatrix in="SourceAlpha" type="matrix" values="0 0 0 0 0 0 0 0 0 0 0 0 0 0 0 0 0 0 127 0" result="hardAlpha"/>
<feOffset dy="1"/>
<feGaussianBlur stdDeviation="1"/>
<feComposite in2="hardAlpha" operator="arithmetic" k2="-1" k3="1"/>
<feColorMatrix type="matrix" values="0 0 0 0 0 0 0 0 0 0 0 0 0 0 0 0 0 0 0.06 0"/>
<feBlend mode="normal" in2="shape" result="effect2_innerShadow_1_2"/>
</filter>
<filter id="filter1_di_1_2" x="61.0165" y="62.5702" width="76.9669" height="76.9669" filterUnits="userSpaceOnUse" color-interpolation-filters="sRGB">
<feFlood flood-opacity="0" result="BackgroundImageFix"/>
<feColorMatrix in="SourceAlpha" type="matrix" values="0 0 0 0 0 0 0 0 0 0 0 0 0 0 0 0 0 0 127 0" result="hardAlpha"/>
<feOffset dy="0.553719"/>
<feGaussianBlur stdDeviation="0.830579"/>
<feComposite in2="hardAlpha" operator="out"/>
<feColorMatrix type="matrix" values="0 0 0 0 0 0 0 0 0 0 0 0 0 0 0 0 0 0 0.1 0"/>
<feBlend mode="normal" in2="BackgroundImageFix" result="effect1_dropShadow_1_2"/>
<feBlend mode="normal" in="SourceGraphic" in2="effect1_dropShadow_1_2" result="shape"/>
<feColorMatrix in="SourceAlpha" type="matrix" values="0 0 0 0 0 0 0 0 0 0 0 0 0 0 0 0 0 0 127 0" result="hardAlpha"/>
<feOffset dy="0.553719"/>
<feGaussianBlur stdDeviation="0.553719"/>
<feComposite in2="hardAlpha" operator="arithmetic" k2="-1" k3="1"/>
<feColorMatrix type="matrix" values="0 0 0 0 0 0 0 0 0 0 0 0 0 0 0 0 0 0 0.06 0"/>
<feBlend mode="normal" in2="shape" result="effect2_innerShadow_1_2"/>
</filter>
<linearGradient id="paint0_linear_1_2" x1="434" y1="338.716" x2="-47.4834" y2="216.558" gradientUnits="userSpaceOnUse">
<stop stop-color="#6D41CA"/>
<stop offset="0.444029" stop-color="#8455E0"/>
<stop offset="1" stop-color="#DAB6FF"/>
</linearGradient>
<linearGradient id="paint1_linear_1_2" x1="-154" y1="18.0386" x2="336.804" y2="121.175" gradientUnits="userSpaceOnUse">
<stop stop-color="#6D41CA"/>
<stop offset="0.444029" stop-color="#8455E0"/>
<stop offset="1" stop-color="#DAB6FF"/>
</linearGradient>
<clipPath id="clip0_1_2">
<rect width="198" height="342" fill="white"/>
</clipPath>
</defs>
</svg>
