<svg width="30" height="31" viewBox="0 0 30 31" fill="none" xmlns="http://www.w3.org/2000/svg">
<g id="Icons Pack outline ">
<path id="Vector" d="M2.8125 24.2051C9.64649 24.2051 16.267 25.1191 22.5584 26.8316C23.4672 27.079 24.375 26.4033 24.375 25.4615V24.2051M4.6875 6.39258V7.33008C4.6875 7.84785 4.26777 8.26758 3.75 8.26758H2.8125M2.8125 8.26758V7.79883C2.8125 7.02218 3.4421 6.39258 4.21875 6.39258H25.3125M2.8125 8.26758V19.5176M25.3125 6.39258V7.33008C25.3125 7.84785 25.7322 8.26758 26.25 8.26758H27.1875M25.3125 6.39258H25.7812C26.5579 6.39258 27.1875 7.02218 27.1875 7.79883V19.9863C27.1875 20.763 26.5579 21.3926 25.7812 21.3926H25.3125M27.1875 19.5176H26.25C25.7322 19.5176 25.3125 19.9373 25.3125 20.4551V21.3926M25.3125 21.3926H4.6875M4.6875 21.3926H4.21875C3.4421 21.3926 2.8125 20.763 2.8125 19.9863V19.5176M4.6875 21.3926V20.4551C4.6875 19.9373 4.26777 19.5176 3.75 19.5176H2.8125M18.75 13.8926C18.75 15.9636 17.0711 17.6426 15 17.6426C12.9289 17.6426 11.25 15.9636 11.25 13.8926C11.25 11.8215 12.9289 10.1426 15 10.1426C17.0711 10.1426 18.75 11.8215 18.75 13.8926ZM22.5 13.8926H22.5094V13.902H22.5V13.8926ZM7.5 13.8926H7.50938V13.902H7.5V13.8926Z" stroke="#212121" stroke-width="1.5" stroke-linecap="round" stroke-linejoin="round"/>
</g>
</svg>
