<svg width="342" height="198" viewBox="0 0 342 198" fill="none" xmlns="http://www.w3.org/2000/svg">
<g clip-path="url(#clip0_1_92)">
<g filter="url(#filter0_di_1_92)">
<mask id="mask0_1_92" style="mask-type:luminance" maskUnits="userSpaceOnUse" x="3" y="2" width="336" height="192">
<path d="M329 2H13C7.47715 2 3 6.47715 3 12V184C3 189.523 7.47715 194 13 194H329C334.523 194 339 189.523 339 184V12C339 6.47715 334.523 2 329 2Z" fill="white"/>
</mask>
<g mask="url(#mask0_1_92)">
<path d="M329 2H13C7.47715 2 3 6.47715 3 12V184C3 189.523 7.47715 194 13 194H329C334.523 194 339 189.523 339 184V12C339 6.47715 334.523 2 329 2Z" fill="white"/>
<path d="M171.5 27.5V138.5" stroke="black" stroke-linecap="round"/>
<path d="M172 27.5C172 27.2239 171.776 27 171.5 27C171.224 27 171 27.2239 171 27.5H172ZM171 27.5V66.5H172V27.5H171Z" fill="#3A82F4"/>
<path d="M171 138.5C171 138.776 171.224 139 171.5 139C171.776 139 172 138.776 172 138.5H171ZM171 99.5V138.5H172V99.5H171Z" fill="#3A82F4"/>
<path d="M3 160.792V193H339V160.792C333.812 179.546 317.259 170.984 301.941 160.792C236.396 117.177 193.482 173.838 157.906 160.792C66.7412 112.275 21.2824 208.085 3 160.792Z" fill="#5733A2"/>
<path d="M3 163.615V194H339V163.615C333.812 180.838 317.259 172.976 301.941 163.615C236.396 123.561 193.482 175.597 157.906 163.615C66.7412 119.059 21.2824 207.048 3 163.615Z" fill="url(#paint0_linear_1_92)"/>
<g filter="url(#filter1_di_1_92)">
<path d="M128 58.5C128 35.5802 109.42 17 86.5 17C63.5802 17 45 35.5802 45 58.5C45 81.4198 63.5802 100 86.5 100C109.42 100 128 81.4198 128 58.5Z" fill="#ADADAD"/>
<path d="M86.5 14.9421H86.4999C62.4436 14.9421 42.9421 34.4436 42.9421 58.4999V58.5C42.9421 82.5563 62.4436 102.058 86.4999 102.058H86.5C110.556 102.058 130.058 82.5563 130.058 58.5V58.4999C130.058 34.4436 110.556 14.9421 86.5 14.9421Z" stroke="white" stroke-width="4.1157"/>
</g>
</g>
</g>
<rect x="29" y="15" width="258" height="127" fill="white"/>
</g>
<defs>
<filter id="filter0_di_1_92" x="0" y="0" width="342" height="198" filterUnits="userSpaceOnUse" color-interpolation-filters="sRGB">
<feFlood flood-opacity="0" result="BackgroundImageFix"/>
<feColorMatrix in="SourceAlpha" type="matrix" values="0 0 0 0 0 0 0 0 0 0 0 0 0 0 0 0 0 0 127 0" result="hardAlpha"/>
<feOffset dy="1"/>
<feGaussianBlur stdDeviation="1.5"/>
<feComposite in2="hardAlpha" operator="out"/>
<feColorMatrix type="matrix" values="0 0 0 0 0 0 0 0 0 0 0 0 0 0 0 0 0 0 0.1 0"/>
<feBlend mode="normal" in2="BackgroundImageFix" result="effect1_dropShadow_1_92"/>
<feBlend mode="normal" in="SourceGraphic" in2="effect1_dropShadow_1_92" result="shape"/>
<feColorMatrix in="SourceAlpha" type="matrix" values="0 0 0 0 0 0 0 0 0 0 0 0 0 0 0 0 0 0 127 0" result="hardAlpha"/>
<feOffset dy="1"/>
<feGaussianBlur stdDeviation="1"/>
<feComposite in2="hardAlpha" operator="arithmetic" k2="-1" k3="1"/>
<feColorMatrix type="matrix" values="0 0 0 0 0 0 0 0 0 0 0 0 0 0 0 0 0 0 0.06 0"/>
<feBlend mode="normal" in2="shape" result="effect2_innerShadow_1_92"/>
</filter>
<filter id="filter1_di_1_92" x="38.8264" y="11.5123" width="95.3471" height="95.3471" filterUnits="userSpaceOnUse" color-interpolation-filters="sRGB">
<feFlood flood-opacity="0" result="BackgroundImageFix"/>
<feColorMatrix in="SourceAlpha" type="matrix" values="0 0 0 0 0 0 0 0 0 0 0 0 0 0 0 0 0 0 127 0" result="hardAlpha"/>
<feOffset dy="0.68595"/>
<feGaussianBlur stdDeviation="1.02893"/>
<feComposite in2="hardAlpha" operator="out"/>
<feColorMatrix type="matrix" values="0 0 0 0 0 0 0 0 0 0 0 0 0 0 0 0 0 0 0.1 0"/>
<feBlend mode="normal" in2="BackgroundImageFix" result="effect1_dropShadow_1_92"/>
<feBlend mode="normal" in="SourceGraphic" in2="effect1_dropShadow_1_92" result="shape"/>
<feColorMatrix in="SourceAlpha" type="matrix" values="0 0 0 0 0 0 0 0 0 0 0 0 0 0 0 0 0 0 127 0" result="hardAlpha"/>
<feOffset dy="0.68595"/>
<feGaussianBlur stdDeviation="0.68595"/>
<feComposite in2="hardAlpha" operator="arithmetic" k2="-1" k3="1"/>
<feColorMatrix type="matrix" values="0 0 0 0 0 0 0 0 0 0 0 0 0 0 0 0 0 0 0.06 0"/>
<feBlend mode="normal" in2="shape" result="effect2_innerShadow_1_92"/>
</filter>
<linearGradient id="paint0_linear_1_92" x1="3" y1="182.373" x2="332.354" y2="118.731" gradientUnits="userSpaceOnUse">
<stop stop-color="#6D41CA"/>
<stop offset="0.444029" stop-color="#8455E0"/>
<stop offset="1" stop-color="#DAB6FF"/>
</linearGradient>
<clipPath id="clip0_1_92">
<rect width="342" height="198" fill="white"/>
</clipPath>
</defs>
</svg>
