<svg width="30" height="31" viewBox="0 0 30 31" fill="none" xmlns="http://www.w3.org/2000/svg">
<g id="Icons Pack outline ">
<path id="Vector" d="M3.75 4.51758V6.39258M3.75 27.0176V19.5176M3.75 19.5176L7.21261 18.6519C9.81793 18.0006 12.5703 18.3027 14.9723 19.5037L15.1069 19.5711C17.4609 20.748 20.153 21.0625 22.7148 20.4597L26.6076 19.5437C26.3713 17.38 26.25 15.1817 26.25 12.9551C26.25 10.7469 26.3693 8.5665 26.6018 6.4201L22.7148 7.33469C20.153 7.93747 17.4609 7.62302 15.1069 6.44605L14.9723 6.37872C12.5703 5.17773 9.81793 4.8756 7.21261 5.52693L3.75 6.39258M3.75 19.5176V6.39258" stroke="black" stroke-width="1.5" stroke-linecap="round" stroke-linejoin="round"/>
</g>
</svg>
