<svg width="34" height="35" viewBox="0 0 34 35" fill="none" xmlns="http://www.w3.org/2000/svg">
<rect y="0.333496" width="34" height="34" rx="8" fill="#F4F5F9"/>
<g clip-path="url(#clip0_4573_3337)">
<path d="M23 9.8335C23 9.00475 22.328 8.3335 21.5 8.3335H12.5C11.6712 8.3335 11 9.0055 11 9.8335V24.8335C11 25.6615 11.6712 26.3335 12.5 26.3335H21.5C22.328 26.3335 23 25.6615 23 24.8335V9.8335ZM15.8742 9.8335H18.125C18.332 9.8335 18.5 10.0015 18.5 10.2085C18.5 10.4155 18.332 10.5835 18.125 10.5835H15.8742C15.668 10.5835 15.5 10.4155 15.5 10.2085C15.5 10.0015 15.668 9.8335 15.8742 9.8335ZM17 24.8335C16.5852 24.8335 16.25 24.4975 16.25 24.0835C16.25 23.6695 16.5852 23.3335 17 23.3335C17.414 23.3335 17.7492 23.6695 17.7492 24.0835C17.7492 24.4975 17.414 24.8335 17 24.8335ZM21.5 22.5835H12.5V12.0655H21.5V22.5835Z" fill="#6E39CB"/>
</g>
<defs>
<clipPath id="clip0_4573_3337">
<rect width="18" height="18" fill="white" transform="translate(8 8.3335)"/>
</clipPath>
</defs>
</svg>
