<svg width="680" height="340" viewBox="0 0 680 340" fill="none" xmlns="http://www.w3.org/2000/svg">
<g clip-path="url(#clip0_4358_4284)">
<rect width="680" height="340" fill="white"/>
<path d="M680 0H0V340H680V0Z" fill="#FFAA00"/>
<path d="M206.55 299.965C160.097 290.7 111.605 286.28 64.0475 291.72C42.2875 294.142 20.825 298.775 0 305.915V340H358.615C309.357 325.89 260.525 311.057 210.885 300.815C209.44 300.517 207.995 300.262 206.55 299.965Z" fill="#FFB100"/>
<path d="M680 0H0V305.915C20.825 298.775 42.2875 294.1 64.0475 291.677C111.605 286.28 160.098 290.658 206.55 299.923C207.995 300.22 209.44 300.518 210.885 300.773C260.525 310.973 309.358 325.848 358.615 339.958H680V0Z" fill="#FFB800"/>
<path d="M203.32 246.925C204.68 247.265 206.04 247.648 207.357 247.988C290.742 270.3 372.555 304.725 459.595 323.043C533.63 338.598 608.133 335.453 680 318.708V0H0V244.333C22.2275 236.853 45.2625 232.56 68.4675 231.2C114.07 228.395 159.673 235.535 203.32 246.925Z" fill="#FFBE00"/>
<path d="M0 0V182.495C23.63 174.675 48.2375 170.893 72.845 170.723C116.535 170.383 159.205 180.37 200.048 193.885C201.323 194.31 202.555 194.735 203.83 195.16C281.86 221.51 359.253 257.253 442.85 276.802C522.198 295.375 602.778 291.423 679.958 271.448V0H0Z" fill="#FFC500"/>
<path d="M77.265 110.245C119 112.795 158.823 125.205 196.818 140.887C198.008 141.355 199.155 141.865 200.345 142.333C273.02 172.762 345.993 209.695 426.148 230.605C510.638 252.62 597.593 247.945 680 224.315V0H0V120.36C25.075 112.03 51.255 108.673 77.265 110.245Z" fill="#FFCC00"/>
<path d="M680 0H0V57.9275C26.4775 49.045 54.2725 46.24 81.685 49.7675C121.465 54.91 158.397 70.04 193.587 87.8475C194.692 88.4 195.755 88.9525 196.86 89.505C264.18 123.973 332.732 162.137 409.487 184.365C498.95 210.29 592.577 205.19 680.042 177.31V0H680Z" fill="#FFD914"/>
<path d="M193.332 36.6775C255.297 75.225 319.43 114.452 392.742 138.125C481.397 166.77 576.045 163.965 663.85 135.872C669.29 134.13 674.645 132.302 680.042 130.39V0H122.442C146.242 9.0525 168.64 21.505 190.315 34.85C191.335 35.445 192.312 36.0825 193.332 36.6775Z" fill="#FFE529"/>
<path d="M680 0H211.65C261.842 36.465 315.137 69.9125 376.04 91.885C457.555 121.295 546.04 123.633 628.915 100.853C646.255 96.0925 663.382 90.1425 680.042 83.13V0H680Z" fill="#FFEF3D"/>
<path d="M593.937 65.79C613.997 61.285 633.717 55.0375 652.842 47.175C662.065 43.3925 671.117 39.185 680 34.6375V0H273.445C300.177 17.7225 328.567 33.235 359.337 45.645C433.67 75.6925 516.035 83.3425 593.937 65.79Z" fill="#FFF852"/>
<path d="M559.003 30.77C591.005 25.415 622.285 15.0025 651.143 0H343.868C410.89 30.175 486.498 42.925 559.003 30.77Z" fill="#FFFF66"/>
</g>
<defs>
<clipPath id="clip0_4358_4284">
<rect width="680" height="340" fill="white"/>
</clipPath>
</defs>
</svg>
