<svg width="21" height="23" viewBox="0 0 21 23" fill="none" xmlns="http://www.w3.org/2000/svg">
<g id="Vector">
<path d="M10.2376 1.76758H9.79758C9.26715 1.76758 8.75844 1.97829 8.38337 2.35336C8.00829 2.72844 7.79758 3.23715 7.79758 3.76758V3.94758C7.79722 4.2983 7.70464 4.64277 7.52912 4.94642C7.3536 5.25006 7.10132 5.50222 6.79758 5.67758L6.36758 5.92758C6.06354 6.10311 5.71865 6.19553 5.36758 6.19553C5.01651 6.19553 4.67162 6.10311 4.36758 5.92758L4.21758 5.84758C3.75864 5.58284 3.21342 5.51102 2.70158 5.64789C2.18975 5.78475 1.75313 6.11911 1.48758 6.57758L1.26758 6.95758C1.00284 7.41651 0.931024 7.96174 1.06789 8.47358C1.20475 8.98541 1.53912 9.42203 1.99758 9.68758L2.14758 9.78758C2.44986 9.96209 2.7012 10.2127 2.87663 10.5144C3.05206 10.8162 3.14547 11.1586 3.14758 11.5076V12.0176C3.14898 12.37 3.05723 12.7165 2.88162 13.0221C2.70602 13.3276 2.45279 13.5814 2.14758 13.7576L1.99758 13.8476C1.53912 14.1131 1.20475 14.5497 1.06789 15.0616C0.931024 15.5734 1.00284 16.1186 1.26758 16.5776L1.48758 16.9576C1.75313 17.416 2.18975 17.7504 2.70158 17.8873C3.21342 18.0241 3.75864 17.9523 4.21758 17.6876L4.36758 17.6076C4.67162 17.432 5.01651 17.3396 5.36758 17.3396C5.71865 17.3396 6.06354 17.432 6.36758 17.6076L6.79758 17.8576C7.10132 18.0329 7.3536 18.2851 7.52912 18.5887C7.70464 18.8924 7.79722 19.2369 7.79758 19.5876V19.7676C7.79758 20.298 8.00829 20.8067 8.38337 21.1818C8.75844 21.5569 9.26715 21.7676 9.79758 21.7676H10.2376C10.768 21.7676 11.2767 21.5569 11.6518 21.1818C12.0269 20.8067 12.2376 20.298 12.2376 19.7676V19.5876C12.2379 19.2369 12.3305 18.8924 12.506 18.5887C12.6816 18.2851 12.9338 18.0329 13.2376 17.8576L13.6676 17.6076C13.9716 17.432 14.3165 17.3396 14.6676 17.3396C15.0187 17.3396 15.3635 17.432 15.6676 17.6076L15.8176 17.6876C16.2765 17.9523 16.8217 18.0241 17.3336 17.8873C17.8454 17.7504 18.282 17.416 18.5476 16.9576L18.7676 16.5676C19.0323 16.1086 19.1041 15.5634 18.9673 15.0516C18.8304 14.5397 18.496 14.1031 18.0376 13.8376L17.8876 13.7576C17.5824 13.5814 17.3291 13.3276 17.1535 13.0221C16.9779 12.7165 16.8862 12.37 16.8876 12.0176V11.5176C16.8862 11.1652 16.9779 10.8186 17.1535 10.5131C17.3291 10.2075 17.5824 9.95379 17.8876 9.77758L18.0376 9.68758C18.496 9.42203 18.8304 8.98541 18.9673 8.47358C19.1041 7.96174 19.0323 7.41651 18.7676 6.95758L18.5476 6.57758C18.282 6.11911 17.8454 5.78475 17.3336 5.64789C16.8217 5.51102 16.2765 5.58284 15.8176 5.84758L15.6676 5.92758C15.3635 6.10311 15.0187 6.19553 14.6676 6.19553C14.3165 6.19553 13.9716 6.10311 13.6676 5.92758L13.2376 5.67758C12.9338 5.50222 12.6816 5.25006 12.506 4.94642C12.3305 4.64277 12.2379 4.2983 12.2376 3.94758V3.76758C12.2376 3.23715 12.0269 2.72844 11.6518 2.35336C11.2767 1.97829 10.768 1.76758 10.2376 1.76758Z" stroke="#212121" stroke-width="2" stroke-linecap="round" stroke-linejoin="round"/>
<path d="M10.0176 14.7676C11.6744 14.7676 13.0176 13.4244 13.0176 11.7676C13.0176 10.1107 11.6744 8.76758 10.0176 8.76758C8.36073 8.76758 7.01758 10.1107 7.01758 11.7676C7.01758 13.4244 8.36073 14.7676 10.0176 14.7676Z" stroke="#212121" stroke-width="2" stroke-linecap="round" stroke-linejoin="round"/>
</g>
</svg>
